<?xml version="1.0" standalone="no"?>
<!DOCTYPE svg PUBLIC "-//W3C//DTD SVG 20010904//EN"
 "http://www.w3.org/TR/2001/REC-SVG-20010904/DTD/svg10.dtd">
<svg version="1.0" xmlns="http://www.w3.org/2000/svg"
 width="500.000000pt" height="500.000000pt" viewBox="0 0 500.000000 500.000000"
 preserveAspectRatio="xMidYMid meet">

<g transform="translate(0.000000,500.000000) scale(0.100000,-0.100000)"
fill="#000000" stroke="none">
<path d="M1712 3607 c-12 -7 -29 -23 -38 -36 -26 -36 -166 -802 -161 -876 8
-110 79 -201 178 -226 l49 -13 2 -265 c3 -251 4 -266 22 -269 10 -2 22 2 27
10 5 7 9 128 9 269 l0 255 54 17 c73 24 138 93 162 173 16 55 16 65 0 154 -9
52 -16 101 -16 108 0 15 67 16 104 3 31 -13 41 0 50 61 9 59 53 121 105 148
114 58 265 -17 286 -141 9 -51 26 -58 77 -29 29 16 56 22 95 22 60 0 90 -15
140 -68 29 -31 63 -38 63 -13 0 17 65 49 98 49 37 0 92 -27 92 -46 0 -6 -12
-73 -26 -150 -16 -84 -24 -160 -22 -192 7 -76 46 -129 125 -167 l62 -30 3
-215 c3 -214 3 -215 26 -218 l22 -3 0 219 0 219 40 12 c87 26 150 112 150 204
0 86 -115 686 -138 716 -36 48 -102 52 -146 7 -19 -18 -29 -53 -51 -172 -15
-82 -28 -150 -29 -151 -1 -1 -20 4 -41 12 -58 21 -96 18 -148 -9 -44 -24 -46
-24 -62 -6 -33 37 -114 62 -179 58 -34 -3 -69 -8 -79 -13 -13 -6 -20 1 -32 29
-23 56 -79 111 -137 136 -64 27 -151 24 -215 -8 -53 -28 -111 -96 -126 -149
l-11 -41 -54 -4 c-30 -2 -55 -1 -57 2 -2 3 -26 131 -55 285 -34 188 -57 288
-69 305 -34 47 -100 64 -149 37z m88 -55 c20 -16 31 -65 96 -413 41 -217 74
-409 74 -427 0 -66 -50 -146 -112 -178 -60 -31 -58 -43 -58 294 0 169 -4 313
-9 320 -5 8 -17 12 -27 10 -18 -3 -19 -19 -22 -321 -3 -350 1 -334 -65 -301
-70 35 -109 99 -109 173 0 42 120 717 143 804 6 24 18 41 32 47 31 12 32 12
57 -8z m1508 -294 c16 -20 134 -676 127 -707 -13 -59 -80 -131 -122 -131 -10
0 -13 62 -15 263 -3 254 -4 262 -23 262 -19 0 -20 -8 -23 -263 l-2 -263 -23 7
c-68 21 -107 76 -107 152 0 52 104 632 120 670 11 24 51 30 68 10z"/>
<path d="M2755 3603 c-55 -14 -105 -78 -105 -135 0 -64 70 -128 140 -128 101
0 162 119 105 206 -28 43 -92 69 -140 57z m82 -75 c29 -27 31 -80 3 -108 -43
-43 -130 -9 -130 50 0 69 78 104 127 58z"/>
<path d="M2610 2631 c0 -6 21 -11 48 -13 41 -3 47 -6 44 -23 -5 -32 -5 -48 3
-82 l8 -33 -179 0 c-176 0 -198 5 -121 30 20 6 37 15 37 19 0 12 -64 21 -148
21 -55 0 -73 -3 -70 -12 5 -13 37 -32 71 -42 28 -9 19 -48 -21 -94 l-38 -44
-52 17 c-109 36 -224 -3 -287 -95 -25 -38 -30 -56 -33 -122 -4 -69 -1 -82 24
-128 33 -61 72 -94 139 -116 119 -41 261 24 305 140 9 26 14 28 46 23 49 -8
65 -24 58 -56 -4 -14 -11 -32 -17 -38 -7 -10 -3 -13 14 -13 21 0 24 5 25 36 0
23 7 40 17 46 9 5 17 16 17 24 0 17 236 284 251 284 18 0 9 -27 -17 -51 -62
-57 -83 -181 -45 -264 23 -51 98 -118 149 -133 204 -61 387 143 298 333 -55
119 -183 171 -321 130 -18 -5 -24 5 -53 89 -26 72 -31 99 -23 114 7 14 6 25
-5 40 -12 18 -25 22 -70 22 -30 0 -54 -4 -54 -9z m120 -205 c0 -11 -156 -195
-218 -256 -13 -13 -14 -13 -9 8 4 17 1 22 -15 22 -15 0 -18 -4 -12 -22 3 -13
3 -20 -1 -16 -6 5 -94 263 -95 276 0 1 79 2 175 2 142 0 175 -3 175 -14z
m-337 -168 c25 -75 43 -138 41 -140 -2 -2 -19 -2 -39 0 -32 4 -35 7 -35 36 -1
42 -22 99 -55 146 l-27 40 28 33 c16 19 32 31 35 28 4 -3 27 -68 52 -143z
m-195 71 c23 -9 23 -10 -29 -77 -29 -37 -59 -72 -67 -79 -17 -14 -12 -48 8
-49 55 -2 183 -30 187 -41 8 -22 -44 -87 -89 -113 -50 -28 -137 -32 -183 -8
-98 52 -142 175 -95 268 49 97 163 139 268 99z m807 -6 c44 -22 65 -43 87 -88
59 -114 -5 -251 -133 -285 -108 -29 -228 52 -245 165 -7 52 10 116 40 152 l23
27 19 -36 c11 -20 41 -60 68 -88 44 -46 50 -50 64 -36 14 14 11 20 -33 58 -26
23 -56 60 -66 83 -17 37 -17 40 -1 49 49 28 120 27 177 -1z m-718 -73 c29 -54
32 -124 6 -117 -10 3 -36 8 -58 11 -22 4 -52 9 -67 12 l-27 5 52 69 c29 38 56
68 62 66 5 -1 19 -22 32 -46z"/>
<path d="M1710 1656 l0 -166 25 0 c24 0 25 2 25 64 0 61 1 64 30 76 39 16 50
37 50 93 0 61 -23 88 -83 94 l-47 6 0 -167z m82 89 c8 -19 8 -31 0 -50 -18
-40 -32 -29 -32 25 0 54 14 65 32 25z"/>
<path d="M1930 1816 c0 -8 -41 -274 -46 -298 -5 -25 -3 -28 20 -28 21 0 25 5
28 33 2 27 7 32 28 32 21 0 26 -5 28 -32 3 -27 8 -33 26 -33 l23 0 -23 153
c-13 83 -24 158 -24 165 0 7 -13 12 -30 12 -16 0 -30 -2 -30 -4z m42 -163 c3
-37 1 -43 -15 -43 -15 0 -18 5 -13 23 3 12 6 35 6 52 0 43 17 18 22 -32z"/>
<path d="M2090 1655 c0 -158 1 -165 20 -165 18 0 20 7 20 70 0 39 4 70 9 70 5
0 15 -31 21 -70 11 -65 14 -70 37 -70 18 0 23 4 19 18 -20 68 -28 143 -17 156
13 16 17 81 7 113 -8 24 -46 43 -86 43 l-30 0 0 -165z m74 99 c10 -27 7 -61
-7 -73 -20 -16 -27 -4 -27 46 0 30 4 43 14 43 8 0 17 -7 20 -16z"/>
<path d="M2270 1655 l0 -165 25 0 c24 0 25 3 25 63 0 97 15 103 35 13 15 -67
20 -76 40 -76 l22 0 -24 108 c-26 114 -27 109 12 205 7 16 4 18 -16 15 -19 -2
-28 -15 -44 -58 l-20 -55 -3 58 c-3 53 -5 57 -27 57 l-25 0 0 -165z"/>
<path d="M2470 1655 l0 -165 29 0 c79 0 101 36 101 165 0 129 -22 165 -101
165 l-29 0 0 -165z m75 0 c0 -97 -2 -110 -17 -113 -16 -3 -18 7 -18 113 0 106
2 116 18 113 15 -3 17 -16 17 -113z"/>
<path d="M2660 1655 l0 -165 25 0 c24 0 25 2 26 73 0 79 13 68 25 -23 6 -44 9
-50 31 -50 26 0 26 4 3 113 -6 27 -4 49 8 78 12 32 13 46 3 80 -13 43 -38 59
-92 59 l-29 0 0 -165z m78 73 c2 -22 -3 -39 -12 -48 -14 -11 -16 -6 -16 40 0
60 23 67 28 8z"/>
<path d="M2850 1655 c0 -158 1 -165 20 -165 19 0 20 7 20 165 0 158 -1 165
-20 165 -19 0 -20 -7 -20 -165z"/>
<path d="M2960 1655 c0 -157 1 -165 20 -165 18 0 20 8 22 93 l3 92 24 -92 c22
-83 27 -93 48 -93 l23 0 0 165 0 165 -25 0 c-25 0 -25 -1 -26 -92 l-1 -93 -25
93 c-21 74 -29 92 -44 92 -18 0 -19 -11 -19 -165z"/>
<path d="M3160 1656 l0 -166 25 0 c24 0 25 2 25 70 0 39 4 70 8 70 5 0 15 -30
23 -67 12 -58 17 -68 37 -71 27 -4 27 -10 -2 116 l-25 104 20 45 c24 56 24 63
0 63 -14 0 -24 -14 -37 -52 l-19 -52 -5 50 c-4 41 -8 49 -27 52 l-23 3 0 -165z"/>
</g>
</svg>
